<svg xmlns="http://www.w3.org/2000/svg" width="15" height="15"><path d="M7.495 6.005c-.821 0-1.49.669-1.49 1.49 0 .822.669 1.492 1.49 1.492a1.492 1.492 0 0 0 0-2.982zm0 0c-.821 0-1.49.669-1.49 1.49 0 .822.669 1.492 1.49 1.492a1.492 1.492 0 0 0 0-2.982zm2.484-2.43H5.012a1.44 1.44 0 0 0-1.438 1.437V9.98a1.44 1.44 0 0 0 1.438 1.438H9.98a1.44 1.44 0 0 0 1.438-1.438V5.012a1.44 1.44 0 0 0-1.438-1.438zm-2.484 6.502a2.585 2.585 0 0 1-2.581-2.582 2.585 2.585 0 0 1 2.581-2.581 2.585 2.585 0 0 1 2.582 2.581 2.585 2.585 0 0 1-2.582 2.582zm2.665-4.63a.612.612 0 1 1 .002-1.222.612.612 0 0 1-.002 1.223zm-2.665.558c-.821 0-1.49.669-1.49 1.49 0 .822.669 1.492 1.49 1.492a1.492 1.492 0 0 0 0-2.982zm2.484-2.43H5.012a1.44 1.44 0 0 0-1.438 1.437V9.98a1.44 1.44 0 0 0 1.438 1.438H9.98a1.44 1.44 0 0 0 1.438-1.438V5.012a1.44 1.44 0 0 0-1.438-1.438zm-2.484 6.502a2.585 2.585 0 0 1-2.581-2.582 2.585 2.585 0 0 1 2.581-2.581 2.585 2.585 0 0 1 2.582 2.581 2.585 2.585 0 0 1-2.582 2.582zm2.665-4.63a.612.612 0 1 1 .002-1.222.612.612 0 0 1-.002 1.223zm-2.665.558c-.821 0-1.49.669-1.49 1.49 0 .822.669 1.492 1.49 1.492a1.492 1.492 0 0 0 0-2.982zM0 0v14.991h14.991V0H0zm12.508 9.979a2.531 2.531 0 0 1-2.53 2.529H5.013a2.531 2.531 0 0 1-2.528-2.53V5.013a2.531 2.531 0 0 1 2.528-2.528H9.98a2.531 2.531 0 0 1 2.529 2.528V9.98zm-2.53-6.405H5.013a1.44 1.44 0 0 0-1.438 1.438V9.98a1.44 1.44 0 0 0 1.438 1.438H9.98a1.44 1.44 0 0 0 1.438-1.438V5.012a1.44 1.44 0 0 0-1.438-1.438zm-2.483 6.503a2.585 2.585 0 0 1-2.581-2.582 2.585 2.585 0 0 1 2.581-2.581 2.585 2.585 0 0 1 2.582 2.581 2.585 2.585 0 0 1-2.582 2.582zm2.665-4.63a.612.612 0 1 1 .002-1.222.612.612 0 0 1-.002 1.223zm-2.665.558c-.821 0-1.49.669-1.49 1.49 0 .822.669 1.492 1.49 1.492a1.492 1.492 0 0 0 0-2.982zm0 0c-.821 0-1.49.669-1.49 1.49 0 .822.669 1.492 1.49 1.492a1.492 1.492 0 0 0 0-2.982zm0 0c-.821 0-1.49.669-1.49 1.49 0 .822.669 1.492 1.49 1.492a1.492 1.492 0 0 0 0-2.982zm2.484-2.43H5.012a1.44 1.44 0 0 0-1.438 1.437V9.98a1.44 1.44 0 0 0 1.438 1.438H9.98a1.44 1.44 0 0 0 1.438-1.438V5.012a1.44 1.44 0 0 0-1.438-1.438zm-2.484 6.502a2.585 2.585 0 0 1-2.581-2.582 2.585 2.585 0 0 1 2.581-2.581 2.585 2.585 0 0 1 2.582 2.581 2.585 2.585 0 0 1-2.582 2.582zm2.665-4.63a.612.612 0 1 1 .002-1.222.612.612 0 0 1-.002 1.223zm-2.665.558c-.821 0-1.49.669-1.49 1.49 0 .822.669 1.492 1.49 1.492a1.492 1.492 0 0 0 0-2.982zm0 0c-.821 0-1.49.669-1.49 1.49 0 .822.669 1.492 1.49 1.492a1.492 1.492 0 0 0 0-2.982zm0 0c-.821 0-1.49.669-1.49 1.49 0 .822.669 1.492 1.49 1.492a1.492 1.492 0 0 0 0-2.982zm2.484-2.43H5.012a1.44 1.44 0 0 0-1.438 1.437V9.98a1.44 1.44 0 0 0 1.438 1.438H9.98a1.44 1.44 0 0 0 1.438-1.438V5.012a1.44 1.44 0 0 0-1.438-1.438zm-2.484 6.502a2.585 2.585 0 0 1-2.581-2.582 2.585 2.585 0 0 1 2.581-2.581 2.585 2.585 0 0 1 2.582 2.581 2.585 2.585 0 0 1-2.582 2.582zm2.665-4.63a.612.612 0 1 1 .002-1.222.612.612 0 0 1-.002 1.223zm-2.665.558c-.821 0-1.49.669-1.49 1.49 0 .822.669 1.492 1.49 1.492a1.492 1.492 0 0 0 0-2.982z" fill="#C536A4" fill-rule="nonzero"/></svg>