<svg xmlns="http://www.w3.org/2000/svg" height="15" width="15"><g fill="none"><path d="m0 0h14.991v14.991h-14.991z" fill="#0084b1"/><path d="m3.528 2.277a1.26 1.26 0 0 1 1.252 1.258 1.25 1.25 0 0 1 -1.26 1.25c-.668.014-1.255-.544-1.255-1.255 0-.69.568-1.254 1.263-1.253zm.73 10.436h-1.471a.346.346 0 0 1 -.346-.346v-6.276c0-.19.155-.345.346-.345h1.47c.192 0 .346.155.346.345v6.276c0 .191-.154.346-.345.346zm8.468-4.763a2.382 2.382 0 0 0 -2.382-2.382h-.377a2.115 2.115 0 0 0 -1.854 1.094.159.159 0 0 0 -.02-.002v-.77a.144.144 0 0 0 -.143-.144h-1.836a.144.144 0 0 0 -.143.143v6.68c0 .08.064.144.143.144h1.876c.079 0 .143-.064.143-.143v-3.86c0-.667.532-1.22 1.2-1.228a1.209 1.209 0 0 1 1.226 1.213v3.875c0 .08.065.144.144.144h1.88c.08 0 .143-.064.143-.143z" fill="#fff"/></g></svg>