<svg xmlns="http://www.w3.org/2000/svg" height="15" width="15"><g fill="none"><path d="m0 0h14.991v14.991h-14.991z" fill="#dc472e"/><path d="m8.66 9.597a.473.473 0 0 0 -.038-.167c-.027-.069-.087-.103-.16-.11-.088-.009-.158.027-.22.082-.026.022-.038.055-.038.055l.002 1.776v.043l.017.023c.051.056.111.1.188.116.126.026.215-.027.24-.144.006-.03.01-.06.01-.09 0-.528.001-1.056-.001-1.584zm0 0a.473.473 0 0 0 -.038-.167c-.027-.069-.087-.103-.16-.11-.088-.009-.158.027-.22.082-.026.022-.038.055-.038.055l.002 1.776v.043l.017.023c.051.056.111.1.188.116.126.026.215-.027.24-.144.006-.03.01-.06.01-.09 0-.528.001-1.056-.001-1.584zm1.988-2.678a147.002 147.002 0 0 0 -6.305 0 1.34 1.34 0 0 0 -1.311 1.341v3.282c0 .73.582 1.325 1.311 1.34 2.102.046 4.204.046 6.305 0a1.341 1.341 0 0 0 1.312-1.34v-3.282c0-.73-.583-1.325-1.312-1.34zm-5.688 4.922h-.605v-3.426h-.628v-.573h1.863v.572h-.63zm2.169-1.422v1.422h-.537v-.325l-.04.043a.984.984 0 0 1 -.414.297.502.502 0 0 1 -.25.022.31.31 0 0 1 -.244-.193.75.75 0 0 1 -.056-.31v-2.483h.535l.003 2.23c0 .04 0 .08.009.12.02.097.094.138.188.104a.585.585 0 0 0 .259-.203c.01-.013.01-.036.01-.054v-2.2l.537-.001v1.53zm2.041 1.138a.44.44 0 0 1 -.457.323.606.606 0 0 1 -.457-.209l-.052-.055v.224h-.538v-3.998h.538v1.316s.03-.06.058-.092a.617.617 0 0 1 .31-.196c.206-.052.443.012.557.253.066.142.085.294.085.449v1.676a.98.98 0 0 1 -.044.309zm1.985-.113a.657.657 0 0 1 -.568.466.898.898 0 0 1 -.512-.053.712.712 0 0 1 -.407-.517 1.561 1.561 0 0 1 -.039-.334c-.004-.438-.002-.876-.001-1.314 0-.229.055-.44.212-.616.179-.2.408-.275.67-.258a.937.937 0 0 1 .233.043c.254.083.39.274.443.526.02.098.028.199.03.298.004.234-.002.749-.002.749h-1.03v.738a.24.24 0 1 0 .48 0v-.38h.553s.008.448-.062.652zm-.49-1.882a.24.24 0 1 0 -.48 0v.414h.48zm-2.044-.132c-.027-.069-.087-.103-.16-.11-.088-.009-.158.027-.22.082-.026.023-.038.055-.038.055l.002 1.776v.043l.017.024c.051.055.111.1.188.115.126.026.215-.027.24-.144.006-.03.01-.06.01-.09 0-.528.001-1.056-.001-1.584a.473.473 0 0 0 -.038-.167zm1.375-6.305v2.968h-.55v-.319c-.06.06-.112.116-.17.166a.743.743 0 0 1 -.349.182c-.205.04-.38-.025-.446-.238a.784.784 0 0 1 -.036-.221v-2.538h.546v2.264c0 .03.003.06.008.09.016.093.085.136.175.105a.587.587 0 0 0 .264-.203c.01-.013.008-.036.008-.055v-2.201zm-4.549.515c-.12-.503-.37-1.565-.37-1.565h-.626l.696 2.306a.284.284 0 0 1 .011.08v1.632h.577v-1.631c0-.027.004-.055.011-.081l.696-2.306h-.626l-.37 1.566zm1.749-.59a.788.788 0 0 0 -.788.788v1.541a.788.788 0 1 0 1.575 0v-1.541a.788.788 0 0 0 -.787-.788zm.227 2.36a.228.228 0 0 1 -.454 0v-1.602a.228.228 0 0 1 .454 0z" fill="#fff"/></g></svg>